HIERARCHY
ROOT Hips
{
	OFFSET 0.000000 0.000000 0.000000
	CHANNELS 6 Xposition Yposition Zposition Xrotation Yrotation Zrotation
	JOINT LeftUpLeg_virtual
	{
		OFFSET 0.000000 0.000000 0.000000
		CHANNELS 3 Xrotation Yrotation Zrotation
		JOINT LeftUpLeg
		{
			OFFSET 10.205400 -3.823500 0.155100
			CHANNELS 3 Xrotation Yrotation Zrotation
			JOINT LeftLeg
			{
				OFFSET 0.708757 -12.982077 0.567790
				CHANNELS 3 Xrotation Yrotation Zrotation
				JOINT LeftFoot
				{
					OFFSET -0.708756 -10.717838 -2.184338
					CHANNELS 3 Xrotation Yrotation Zrotation
					JOINT LeftToeBase
					{
						OFFSET 0.108149 -7.191104 7.560241
						CHANNELS 3 Xrotation Yrotation Zrotation
						JOINT LeftToe_End
						{
							OFFSET 0.070230 0.081724 4.490308
							CHANNELS 3 Xrotation Yrotation Zrotation
							End Site
							{
								OFFSET 0 0 0
							}
						}
					}
				}
			}
		}
	}
	JOINT RightUpLeg_virtual
	{
		OFFSET 0.000000 0.000000 0.000000
		CHANNELS 3 Xrotation Yrotation Zrotation
		JOINT RightUpLeg
		{
			OFFSET -10.205400 -3.823500 0.005500
			CHANNELS 3 Xrotation Yrotation Zrotation
			JOINT RightLeg
			{
				OFFSET -0.708756 -12.982134 0.610632
				CHANNELS 3 Xrotation Yrotation Zrotation
				JOINT RightFoot
				{
					OFFSET 0.708754 -10.717769 -1.945823
					CHANNELS 3 Xrotation Yrotation Zrotation
					JOINT RightToeBase
					{
						OFFSET -0.108140 -7.191069 7.372968
						CHANNELS 3 Xrotation Yrotation Zrotation
						JOINT RightToe_End
						{
							OFFSET -0.070227 0.081735 4.479403
							CHANNELS 3 Xrotation Yrotation Zrotation
							End Site
							{
								OFFSET 0 0 0
							}
						}
					}
				}
			}
		}
	}
	JOINT Spine_virtual
	{
		OFFSET 0.000000 0.000000 0.000000
		CHANNELS 3 Xrotation Yrotation Zrotation
		JOINT Spine
		{
			OFFSET 0.000000 6.876099 0.125700
			CHANNELS 3 Xrotation Yrotation Zrotation
			JOINT Spine1
			{
				OFFSET 0.000000 5.730043 0.104720
				CHANNELS 3 Xrotation Yrotation Zrotation
				JOINT Spine1_split
				{
					OFFSET 0.000000 5.730043 0.104720
					CHANNELS 3 Xrotation Yrotation Zrotation
					JOINT Spine2
					{
						OFFSET 0.000000 5.730043 0.104720
						CHANNELS 3 Xrotation Yrotation Zrotation
						JOINT Neck_virtual
						{
							OFFSET 0.000000 0.000000 0.000000
							CHANNELS 3 Xrotation Yrotation Zrotation
							JOINT Neck
							{
								OFFSET 0.000000 10.314075 0.188496
								CHANNELS 3 Xrotation Yrotation Zrotation
								JOINT Head
								{
									OFFSET 0.000000 7.643700 -2.377400
									CHANNELS 3 Xrotation Yrotation Zrotation
									JOINT HeadTop_End
									{
										OFFSET 0.000000 43.788605 -13.619600
										CHANNELS 3 Xrotation Yrotation Zrotation
										End Site
										{
											OFFSET 0 0 0
										}
									}
								}
							}
						}
						JOINT LeftShoulder_virtual
						{
							OFFSET 0.000000 0.000000 0.000000
							CHANNELS 3 Xrotation Yrotation Zrotation
							JOINT LeftShoulder
							{
								OFFSET 2.196100 4.412489 0.087492
								CHANNELS 3 Xrotation Yrotation Zrotation
								JOINT LeftShoulder_split
								{
									OFFSET 2.196100 4.412489 0.087492
									CHANNELS 3 Xrotation Yrotation Zrotation
									JOINT LeftArm
									{
										OFFSET 8.771219 -2.981674 -0.026999
										CHANNELS 3 Xrotation Yrotation Zrotation
										JOINT LeftForeArm
										{
											OFFSET 8.512804 0.000000 -0.000000
											CHANNELS 3 Xrotation Yrotation Zrotation
											JOINT LeftHand
											{
												OFFSET 18.484802 0.000000 -0.000000
												CHANNELS 3 Xrotation Yrotation Zrotation
												End Site
												{
													OFFSET 0 0 0
												}
											}
										}
									}
								}
							}
						}
						JOINT RightShoulder_virtual
						{
							OFFSET 0.000000 0.000000 0.000000
							CHANNELS 3 Xrotation Yrotation Zrotation
							JOINT RightShoulder
							{
								OFFSET -2.196100 4.412496 0.070690
								CHANNELS 3 Xrotation Yrotation Zrotation
								JOINT RightShoulder_split
								{
									OFFSET -2.196100 4.412496 0.070690
									CHANNELS 3 Xrotation Yrotation Zrotation
									JOINT RightArm
									{
										OFFSET -8.771282 -2.981682 -0.094208
										CHANNELS 3 Xrotation Yrotation Zrotation
										JOINT RightForeArm
										{
											OFFSET -8.494598 0.000000 0.000000
											CHANNELS 3 Xrotation Yrotation Zrotation
											JOINT RightHand
											{
												OFFSET -18.483803 0.000000 0.000001
												CHANNELS 3 Xrotation Yrotation Zrotation
												End Site
												{
													OFFSET 0 0 0
												}
											}
										}
									}
								}
							}
						}
					}
				}
			}
		}
	}
}
MOTION
Frames: 6
Frame Time: 0.03333333
-3.259011 26.140945 -2.578245 0.000000 0.000000 0.000000 8.058617 8.398797 -21.549764 -75.934239 17.046241 13.340480 105.223634 -1.294435 9.748433 25.186428 0.844130 26.051108 -0.758219 -4.091273 -4.630636 0.000000 0.000000 0.000000 2.985999 7.274697 -20.169538 -9.558186 -7.114920 -9.823077 50.796923 14.530647 4.973048 3.169707 17.001102 -5.824481 -46.734002 3.982618 -3.383746 0.000000 0.000000 0.000000 3.369334 12.129834 -20.327572 5.330473 5.937177 2.867167 2.573879 2.105727 1.867077 1.020563 2.323588 0.961068 0.000000 0.000000 0.000000 1.312393 1.072829 2.876580 -7.368107 3.578842 -3.122214 -16.914368 7.227827 4.243764 0.000000 0.000000 0.000000 2.393613 1.606328 1.748483 -1.069006 -5.701106 -4.133814 -1.975960 2.355820 -2.919238 59.870829 -16.050168 -42.597417 9.639335 -75.043698 9.954277 0.000000 0.000000 0.000000 3.904771 2.349429 2.359330 3.185295 -5.330625 9.237737 8.293748 3.744451 -7.131204 -17.001459 23.152343 54.485676 4.084162 76.741970 -3.727568 0.000000 0.000000 0.000000 
-3.357695 26.645357 3.523121 0.000000 0.000000 0.000000 4.715796 5.487053 -21.579329 -82.453962 16.305241 15.002758 82.655083 0.161765 5.720002 27.030904 1.585775 23.837345 0.924361 -3.953653 -4.287361 0.000000 0.000000 0.000000 3.119288 2.372697 -20.762633 -2.071205 -8.519597 -11.055869 45.180745 14.904052 5.139460 9.358846 17.146334 1.483516 -48.237682 4.341177 -3.653496 0.000000 0.000000 0.000000 3.668210 8.696847 -20.981786 4.039411 7.413849 3.060294 2.573894 2.552045 1.586637 1.010380 4.463379 0.220638 0.000000 0.000000 0.000000 1.463095 1.594985 2.674775 -6.774852 2.904745 -2.909329 -17.903307 7.901558 4.966201 0.000000 0.000000 0.000000 2.212786 2.214355 1.867358 -0.947819 -3.583737 -3.305655 -1.557817 3.558318 -2.759495 62.994213 -14.028123 -41.309087 8.997713 -78.135718 8.494825 0.000000 0.000000 0.000000 2.894376 2.714958 2.059187 2.369382 -3.792520 8.033597 7.800207 4.163094 -7.395472 -24.859928 28.398303 58.895492 8.932474 88.152949 -9.514978 0.000000 0.000000 0.000000 
-3.101461 27.265650 10.946378 0.000000 0.000000 0.000000 2.968034 2.761330 -21.060045 -85.177404 12.476130 12.006522 56.403395 2.488361 3.326759 29.326408 2.645772 19.552284 3.752621 -3.820176 -4.457224 0.000000 0.000000 0.000000 4.958372 1.754965 -20.934199 9.933094 -8.275406 -10.828601 37.637672 14.768969 4.043786 13.247110 16.710720 8.761154 -46.122119 3.886967 -2.538588 0.000000 0.000000 0.000000 3.839618 6.397685 -20.779534 2.964206 10.025866 3.038008 2.614959 3.580999 1.232666 1.092070 4.364639 -0.172719 0.000000 0.000000 0.000000 1.591955 2.639162 2.241559 -5.908051 1.925162 -1.973050 -18.101565 9.139657 5.040570 0.000000 0.000000 0.000000 1.964169 3.402443 1.777522 -0.999739 -0.805661 -2.562898 -1.129785 3.070754 -1.715244 65.743931 -12.392459 -42.154176 8.843596 -82.415685 7.534196 0.000000 0.000000 0.000000 2.195909 3.683131 1.567717 1.583727 -1.926057 6.858177 7.896687 2.505301 -6.609732 -30.572804 33.779568 62.948280 179.529419 80.297528 178.992429 0.000000 0.000000 0.000000 
-2.452317 27.460361 18.484699 0.000000 0.000000 0.000000 2.392538 1.960356 -20.174335 -82.985398 8.058013 5.337075 37.004059 5.307737 3.050189 29.106353 4.778753 16.318908 6.462571 -3.694290 -4.660990 0.000000 0.000000 0.000000 7.878988 4.785937 -20.853556 20.811540 -6.936957 -9.716419 33.369449 13.020547 1.617122 12.375452 12.747493 11.086819 -39.097106 3.145974 -0.883093 0.000000 0.000000 0.000000 3.021462 6.629391 -20.005592 2.613596 12.782327 2.610454 2.732745 4.662411 0.964599 1.358648 2.461287 0.215627 0.000000 0.000000 0.000000 1.554640 3.674074 1.776266 -4.893275 1.241415 -0.608040 -17.419651 10.908816 4.540609 0.000000 0.000000 0.000000 1.817675 4.572417 1.565058 -1.101834 1.645558 -2.270773 0.061480 1.831530 -0.742182 65.668697 -11.982158 -44.707212 8.235144 -85.985074 6.617393 0.000000 0.000000 0.000000 1.951871 4.656316 1.011037 0.858363 -0.369620 6.232213 8.656081 0.415133 -4.742847 -29.599960 36.970188 64.276219 179.023903 72.049214 178.903118 0.000000 0.000000 0.000000 
-1.462873 27.184101 26.011271 0.000000 0.000000 0.000000 2.227021 3.777868 -18.805966 -76.443095 4.439669 -2.728417 28.512316 7.952557 3.763538 23.060505 7.419760 16.196434 7.351619 -3.258011 -4.518936 0.000000 0.000000 0.000000 10.168670 9.671967 -20.597965 25.192910 -5.366280 -8.444258 38.326227 9.220497 -1.548596 7.961663 4.915037 6.846805 -28.485224 2.709044 0.585110 0.000000 0.000000 0.000000 2.033353 10.069581 -18.624211 3.011448 14.449713 1.814220 2.961347 5.296244 0.782254 0.688336 0.850399 0.675354 0.000000 0.000000 0.000000 1.318004 4.109605 1.402589 -3.854031 1.074695 0.589367 -15.965014 12.919651 3.711234 0.000000 0.000000 0.000000 1.785210 5.072460 1.234315 -1.159252 2.989391 -2.601811 1.840460 0.878436 -0.273284 61.227516 -12.927312 -47.825972 7.335424 -86.627856 6.041230 0.000000 0.000000 0.000000 2.078315 5.028269 0.549934 0.289318 0.489458 6.382995 9.435466 -0.155584 -2.457709 -20.228666 36.465034 62.257038 177.865038 68.778659 179.957234 0.000000 0.000000 0.000000 
-0.112539 26.605543 33.476418 0.000000 0.000000 0.000000 1.562924 7.204652 -17.203488 -65.157559 2.359091 -9.846069 30.814545 9.772406 4.146437 10.771908 8.862310 19.501857 3.719479 -2.413377 -4.174814 0.000000 0.000000 0.000000 10.072349 16.129555 -20.487832 19.630087 -3.705149 -7.529116 55.111509 3.689319 -4.215462 2.519394 -3.728831 -1.574026 -17.081567 2.635010 1.239128 0.000000 0.000000 0.000000 0.398339 15.204940 -16.394505 3.840620 14.101903 0.707769 3.250380 4.996939 0.643695 0.073863 -0.041799 0.064020 0.000000 0.000000 0.000000 0.893140 3.612208 1.131680 -2.771550 1.556078 1.177430 -13.784602 15.525206 3.011026 0.000000 0.000000 0.000000 1.921669 4.521853 0.846379 -1.101246 3.065836 -3.382975 2.977807 -0.303272 -1.191464 51.445487 -14.694954 -50.733672 5.249335 -83.580082 5.044539 0.000000 0.000000 0.000000 2.419608 4.440180 0.291919 -0.029132 0.141230 7.070818 8.880130 0.320704 -0.237048 -4.662630 31.413993 59.168884 176.182735 70.135586 -177.915226 0.000000 0.000000 0.000000 
